<?xml version="1.0" encoding="UTF-8"?><svg id="Layer_2" xmlns="http://www.w3.org/2000/svg" viewBox="0 0 218.62 118.79"><defs><style>.cls-1{fill:#fff;}.cls-2{fill:#ffc866;}</style></defs><g id="Layer_1-2"><circle class="cls-2" cx="23.91" cy="23.91" r="23.91"/><path class="cls-1" d="m13.5,24.33v-2.02h38.46v2.02l-8.1,2.02v86.37l8.1,2.02v2.02H13.5v-2.02l8.1-2.02V26.35l-8.1-2.02Z"/><path class="cls-1" d="m112.69,69.54c0-12.14-5.4-17.54-10.12-17.54-8.1,0-12.15,10.8-12.15,10.8v49.93l8.1,2.02v2.02h-37.79v-2.02l8.1-2.02v-59.38l-8.1-2.02v-2.02h12.15c12.82,0,15.52,10.12,15.52,10.12,0,0,5.4-12.15,19.57-12.15,15.52,0,26.32,10.8,26.32,22.27v43.18l8.1,2.02v2.02h-17.54c-8.1,0-12.15-4.05-12.15-12.15v-35.09Z"/><path class="cls-1" d="m218.62,83.03c0,22.27-13.5,35.76-35.76,35.76s-35.76-13.5-35.76-35.76,13.5-35.76,35.76-35.76,35.76,13.5,35.76,35.76Zm-22.94,0c0-26.31-6.75-33.06-12.82-33.06s-12.82,6.75-12.82,33.06,6.75,33.06,12.82,33.06,12.82-6.75,12.82-33.06Z"/></g></svg>